<mxfile host="65bd71144e">
    <diagram id="C5RBs43oDa-KdzZeNtuy" name="Page-1">
        <mxGraphModel dx="534" dy="630" grid="1" gridSize="10" guides="1" tooltips="1" connect="1" arrows="1" fold="1" page="1" pageScale="1" pageWidth="827" pageHeight="1169" math="0" shadow="0">
            <root>
                <mxCell id="WIyWlLk6GJQsqaUBKTNV-0"/>
                <mxCell id="WIyWlLk6GJQsqaUBKTNV-1" parent="WIyWlLk6GJQsqaUBKTNV-0"/>
                <mxCell id="_Sr880Kr4UFfRhCkgnSI-17" value="" style="edgeStyle=orthogonalEdgeStyle;rounded=0;orthogonalLoop=1;jettySize=auto;html=1;" parent="WIyWlLk6GJQsqaUBKTNV-1" source="_Sr880Kr4UFfRhCkgnSI-15" target="_Sr880Kr4UFfRhCkgnSI-16" edge="1">
                    <mxGeometry relative="1" as="geometry"/>
                </mxCell>
                <mxCell id="_Sr880Kr4UFfRhCkgnSI-15" value="START" style="ellipse;whiteSpace=wrap;html=1;fillColor=#60a917;fontColor=#ffffff;strokeColor=#2D7600;" parent="WIyWlLk6GJQsqaUBKTNV-1" vertex="1">
                    <mxGeometry x="370" y="20" width="120" height="80" as="geometry"/>
                </mxCell>
                <mxCell id="_Sr880Kr4UFfRhCkgnSI-19" value="" style="edgeStyle=orthogonalEdgeStyle;rounded=0;orthogonalLoop=1;jettySize=auto;html=1;" parent="WIyWlLk6GJQsqaUBKTNV-1" source="_Sr880Kr4UFfRhCkgnSI-16" target="_Sr880Kr4UFfRhCkgnSI-18" edge="1">
                    <mxGeometry relative="1" as="geometry"/>
                </mxCell>
                <mxCell id="_Sr880Kr4UFfRhCkgnSI-16" value="weight" style="shape=parallelogram;perimeter=parallelogramPerimeter;whiteSpace=wrap;html=1;fixedSize=1;fillColor=#e3c800;fontColor=#000000;strokeColor=#B09500;" parent="WIyWlLk6GJQsqaUBKTNV-1" vertex="1">
                    <mxGeometry x="370" y="190" width="120" height="60" as="geometry"/>
                </mxCell>
                <mxCell id="_Sr880Kr4UFfRhCkgnSI-21" value="" style="edgeStyle=orthogonalEdgeStyle;rounded=0;orthogonalLoop=1;jettySize=auto;html=1;" parent="WIyWlLk6GJQsqaUBKTNV-1" source="_Sr880Kr4UFfRhCkgnSI-18" target="_Sr880Kr4UFfRhCkgnSI-20" edge="1">
                    <mxGeometry relative="1" as="geometry"/>
                </mxCell>
                <mxCell id="_Sr880Kr4UFfRhCkgnSI-18" value="height" style="shape=parallelogram;perimeter=parallelogramPerimeter;whiteSpace=wrap;html=1;fixedSize=1;fillColor=#e3c800;fontColor=#000000;strokeColor=#B09500;" parent="WIyWlLk6GJQsqaUBKTNV-1" vertex="1">
                    <mxGeometry x="370" y="330" width="120" height="60" as="geometry"/>
                </mxCell>
                <mxCell id="_Sr880Kr4UFfRhCkgnSI-23" value="" style="edgeStyle=orthogonalEdgeStyle;rounded=0;orthogonalLoop=1;jettySize=auto;html=1;" parent="WIyWlLk6GJQsqaUBKTNV-1" source="_Sr880Kr4UFfRhCkgnSI-20" target="_Sr880Kr4UFfRhCkgnSI-22" edge="1">
                    <mxGeometry relative="1" as="geometry"/>
                </mxCell>
                <mxCell id="_Sr880Kr4UFfRhCkgnSI-20" value="age" style="shape=parallelogram;perimeter=parallelogramPerimeter;whiteSpace=wrap;html=1;fixedSize=1;fillColor=#e3c800;fontColor=#000000;strokeColor=#B09500;" parent="WIyWlLk6GJQsqaUBKTNV-1" vertex="1">
                    <mxGeometry x="370" y="470" width="120" height="60" as="geometry"/>
                </mxCell>
                <mxCell id="_Sr880Kr4UFfRhCkgnSI-25" value="" style="edgeStyle=orthogonalEdgeStyle;rounded=0;orthogonalLoop=1;jettySize=auto;html=1;" parent="WIyWlLk6GJQsqaUBKTNV-1" source="_Sr880Kr4UFfRhCkgnSI-22" target="_Sr880Kr4UFfRhCkgnSI-24" edge="1">
                    <mxGeometry relative="1" as="geometry"/>
                </mxCell>
                <mxCell id="_Sr880Kr4UFfRhCkgnSI-22" value="gender" style="shape=parallelogram;perimeter=parallelogramPerimeter;whiteSpace=wrap;html=1;fixedSize=1;fillColor=#e3c800;fontColor=#000000;strokeColor=#B09500;" parent="WIyWlLk6GJQsqaUBKTNV-1" vertex="1">
                    <mxGeometry x="370" y="610" width="120" height="60" as="geometry"/>
                </mxCell>
                <mxCell id="_Sr880Kr4UFfRhCkgnSI-27" value="" style="edgeStyle=orthogonalEdgeStyle;rounded=0;orthogonalLoop=1;jettySize=auto;html=1;" parent="WIyWlLk6GJQsqaUBKTNV-1" source="_Sr880Kr4UFfRhCkgnSI-24" target="_Sr880Kr4UFfRhCkgnSI-26" edge="1">
                    <mxGeometry relative="1" as="geometry"/>
                </mxCell>
                <mxCell id="_Sr880Kr4UFfRhCkgnSI-24" value="&lt;span style=&quot;&quot;&gt;exercise_frequency&lt;/span&gt;" style="shape=parallelogram;perimeter=parallelogramPerimeter;whiteSpace=wrap;html=1;fixedSize=1;fillColor=#e3c800;fontColor=#000000;strokeColor=#B09500;" parent="WIyWlLk6GJQsqaUBKTNV-1" vertex="1">
                    <mxGeometry x="360" y="750" width="140" height="80" as="geometry"/>
                </mxCell>
                <mxCell id="_Sr880Kr4UFfRhCkgnSI-29" value="" style="edgeStyle=orthogonalEdgeStyle;rounded=0;orthogonalLoop=1;jettySize=auto;html=1;" parent="WIyWlLk6GJQsqaUBKTNV-1" source="_Sr880Kr4UFfRhCkgnSI-26" target="_Sr880Kr4UFfRhCkgnSI-28" edge="1">
                    <mxGeometry relative="1" as="geometry"/>
                </mxCell>
                <mxCell id="_Sr880Kr4UFfRhCkgnSI-26" value="calory" style="shape=parallelogram;perimeter=parallelogramPerimeter;whiteSpace=wrap;html=1;fixedSize=1;fillColor=#e3c800;fontColor=#000000;strokeColor=#B09500;" parent="WIyWlLk6GJQsqaUBKTNV-1" vertex="1">
                    <mxGeometry x="370" y="920" width="120" height="60" as="geometry"/>
                </mxCell>
                <mxCell id="_Sr880Kr4UFfRhCkgnSI-31" value="" style="edgeStyle=orthogonalEdgeStyle;rounded=0;orthogonalLoop=1;jettySize=auto;html=1;" parent="WIyWlLk6GJQsqaUBKTNV-1" source="_Sr880Kr4UFfRhCkgnSI-28" target="_Sr880Kr4UFfRhCkgnSI-30" edge="1">
                    <mxGeometry relative="1" as="geometry"/>
                </mxCell>
                <mxCell id="_Sr880Kr4UFfRhCkgnSI-28" value="final_calory" style="shape=parallelogram;perimeter=parallelogramPerimeter;whiteSpace=wrap;html=1;fixedSize=1;fillColor=#e3c800;fontColor=#000000;strokeColor=#B09500;" parent="WIyWlLk6GJQsqaUBKTNV-1" vertex="1">
                    <mxGeometry x="370" y="1060" width="120" height="60" as="geometry"/>
                </mxCell>
                <mxCell id="_Sr880Kr4UFfRhCkgnSI-33" value="" style="edgeStyle=orthogonalEdgeStyle;rounded=0;orthogonalLoop=1;jettySize=auto;html=1;" parent="WIyWlLk6GJQsqaUBKTNV-1" source="_Sr880Kr4UFfRhCkgnSI-30" target="_Sr880Kr4UFfRhCkgnSI-32" edge="1">
                    <mxGeometry relative="1" as="geometry"/>
                </mxCell>
                <mxCell id="_Sr880Kr4UFfRhCkgnSI-30" value="protein" style="shape=parallelogram;perimeter=parallelogramPerimeter;whiteSpace=wrap;html=1;fixedSize=1;fillColor=#e3c800;fontColor=#000000;strokeColor=#B09500;" parent="WIyWlLk6GJQsqaUBKTNV-1" vertex="1">
                    <mxGeometry x="370" y="1200" width="120" height="60" as="geometry"/>
                </mxCell>
                <mxCell id="_Sr880Kr4UFfRhCkgnSI-35" value="" style="edgeStyle=orthogonalEdgeStyle;rounded=0;orthogonalLoop=1;jettySize=auto;html=1;" parent="WIyWlLk6GJQsqaUBKTNV-1" source="_Sr880Kr4UFfRhCkgnSI-32" target="_Sr880Kr4UFfRhCkgnSI-34" edge="1">
                    <mxGeometry relative="1" as="geometry"/>
                </mxCell>
                <mxCell id="_Sr880Kr4UFfRhCkgnSI-32" value="carbohydrate" style="shape=parallelogram;perimeter=parallelogramPerimeter;whiteSpace=wrap;html=1;fixedSize=1;fillColor=#e3c800;fontColor=#000000;strokeColor=#B09500;" parent="WIyWlLk6GJQsqaUBKTNV-1" vertex="1">
                    <mxGeometry x="370" y="1340" width="120" height="60" as="geometry"/>
                </mxCell>
                <mxCell id="_Sr880Kr4UFfRhCkgnSI-37" value="" style="edgeStyle=orthogonalEdgeStyle;rounded=0;orthogonalLoop=1;jettySize=auto;html=1;" parent="WIyWlLk6GJQsqaUBKTNV-1" source="_Sr880Kr4UFfRhCkgnSI-34" edge="1">
                    <mxGeometry relative="1" as="geometry">
                        <mxPoint x="430" y="1620" as="targetPoint"/>
                    </mxGeometry>
                </mxCell>
                <mxCell id="_Sr880Kr4UFfRhCkgnSI-34" value="fat" style="shape=parallelogram;perimeter=parallelogramPerimeter;whiteSpace=wrap;html=1;fixedSize=1;fillColor=#e3c800;fontColor=#000000;strokeColor=#B09500;" parent="WIyWlLk6GJQsqaUBKTNV-1" vertex="1">
                    <mxGeometry x="370" y="1480" width="120" height="60" as="geometry"/>
                </mxCell>
                <mxCell id="_Sr880Kr4UFfRhCkgnSI-40" value="" style="edgeStyle=orthogonalEdgeStyle;rounded=0;orthogonalLoop=1;jettySize=auto;html=1;" parent="WIyWlLk6GJQsqaUBKTNV-1" source="_Sr880Kr4UFfRhCkgnSI-38" target="_Sr880Kr4UFfRhCkgnSI-39" edge="1">
                    <mxGeometry relative="1" as="geometry"/>
                </mxCell>
                <mxCell id="_Sr880Kr4UFfRhCkgnSI-49" value="" style="edgeStyle=orthogonalEdgeStyle;rounded=0;orthogonalLoop=1;jettySize=auto;html=1;" parent="WIyWlLk6GJQsqaUBKTNV-1" source="_Sr880Kr4UFfRhCkgnSI-38" target="_Sr880Kr4UFfRhCkgnSI-48" edge="1">
                    <mxGeometry relative="1" as="geometry"/>
                </mxCell>
                <mxCell id="_Sr880Kr4UFfRhCkgnSI-38" value="gender&amp;nbsp; = pria" style="rhombus;whiteSpace=wrap;html=1;fillColor=#f0a30a;fontColor=#000000;strokeColor=#BD7000;" parent="WIyWlLk6GJQsqaUBKTNV-1" vertex="1">
                    <mxGeometry x="372.5" y="1620" width="115" height="110" as="geometry"/>
                </mxCell>
                <mxCell id="_Sr880Kr4UFfRhCkgnSI-51" style="edgeStyle=orthogonalEdgeStyle;rounded=0;orthogonalLoop=1;jettySize=auto;html=1;exitX=1;exitY=0.5;exitDx=0;exitDy=0;" parent="WIyWlLk6GJQsqaUBKTNV-1" source="_Sr880Kr4UFfRhCkgnSI-39" edge="1">
                    <mxGeometry relative="1" as="geometry">
                        <mxPoint x="1110" y="2010" as="targetPoint"/>
                    </mxGeometry>
                </mxCell>
                <mxCell id="_Sr880Kr4UFfRhCkgnSI-39" value="calory = (66 + (1.37 * weight) + (5 * height) - (6.8 * age))" style="whiteSpace=wrap;html=1;fillColor=#1ba1e2;strokeColor=#006EAF;fontColor=#ffffff;" parent="WIyWlLk6GJQsqaUBKTNV-1" vertex="1">
                    <mxGeometry x="580" y="1645" width="440" height="60" as="geometry"/>
                </mxCell>
                <mxCell id="_Sr880Kr4UFfRhCkgnSI-55" value="" style="edgeStyle=orthogonalEdgeStyle;rounded=0;orthogonalLoop=1;jettySize=auto;html=1;" parent="WIyWlLk6GJQsqaUBKTNV-1" source="_Sr880Kr4UFfRhCkgnSI-42" edge="1">
                    <mxGeometry relative="1" as="geometry">
                        <mxPoint x="1110" y="2010" as="targetPoint"/>
                    </mxGeometry>
                </mxCell>
                <mxCell id="_Sr880Kr4UFfRhCkgnSI-42" value="calory = (655 + (9.6 * weight) + (1.8 * height) - (4.7 * age))" style="whiteSpace=wrap;html=1;fillColor=#1ba1e2;fontColor=#ffffff;strokeColor=#006EAF;" parent="WIyWlLk6GJQsqaUBKTNV-1" vertex="1">
                    <mxGeometry x="580" y="1850" width="440" height="60" as="geometry"/>
                </mxCell>
                <mxCell id="_Sr880Kr4UFfRhCkgnSI-50" style="edgeStyle=orthogonalEdgeStyle;rounded=0;orthogonalLoop=1;jettySize=auto;html=1;exitX=1;exitY=0.5;exitDx=0;exitDy=0;entryX=0;entryY=0.5;entryDx=0;entryDy=0;" parent="WIyWlLk6GJQsqaUBKTNV-1" source="_Sr880Kr4UFfRhCkgnSI-48" target="_Sr880Kr4UFfRhCkgnSI-42" edge="1">
                    <mxGeometry relative="1" as="geometry"/>
                </mxCell>
                <mxCell id="_Sr880Kr4UFfRhCkgnSI-117" value="" style="edgeStyle=orthogonalEdgeStyle;rounded=0;orthogonalLoop=1;jettySize=auto;html=1;" parent="WIyWlLk6GJQsqaUBKTNV-1" source="_Sr880Kr4UFfRhCkgnSI-48" target="_Sr880Kr4UFfRhCkgnSI-116" edge="1">
                    <mxGeometry relative="1" as="geometry"/>
                </mxCell>
                <mxCell id="_Sr880Kr4UFfRhCkgnSI-48" value="gender&amp;nbsp; = wanita" style="rhombus;whiteSpace=wrap;html=1;fillColor=#f0a30a;fontColor=#000000;strokeColor=#BD7000;" parent="WIyWlLk6GJQsqaUBKTNV-1" vertex="1">
                    <mxGeometry x="371.25" y="1825" width="117.5" height="110" as="geometry"/>
                </mxCell>
                <mxCell id="_Sr880Kr4UFfRhCkgnSI-59" value="" style="edgeStyle=orthogonalEdgeStyle;rounded=0;orthogonalLoop=1;jettySize=auto;html=1;" parent="WIyWlLk6GJQsqaUBKTNV-1" source="_Sr880Kr4UFfRhCkgnSI-57" target="_Sr880Kr4UFfRhCkgnSI-58" edge="1">
                    <mxGeometry relative="1" as="geometry"/>
                </mxCell>
                <mxCell id="_Sr880Kr4UFfRhCkgnSI-67" value="" style="edgeStyle=orthogonalEdgeStyle;rounded=0;orthogonalLoop=1;jettySize=auto;html=1;" parent="WIyWlLk6GJQsqaUBKTNV-1" source="_Sr880Kr4UFfRhCkgnSI-57" target="_Sr880Kr4UFfRhCkgnSI-66" edge="1">
                    <mxGeometry relative="1" as="geometry"/>
                </mxCell>
                <mxCell id="_Sr880Kr4UFfRhCkgnSI-57" value="&lt;span&gt;exercise_frequency = very_rarely&lt;/span&gt;" style="rhombus;whiteSpace=wrap;html=1;fillColor=#f0a30a;fontColor=#000000;strokeColor=#BD7000;" parent="WIyWlLk6GJQsqaUBKTNV-1" vertex="1">
                    <mxGeometry x="990" y="2010" width="240" height="150" as="geometry"/>
                </mxCell>
                <mxCell id="_Sr880Kr4UFfRhCkgnSI-61" value="" style="edgeStyle=orthogonalEdgeStyle;rounded=0;orthogonalLoop=1;jettySize=auto;html=1;" parent="WIyWlLk6GJQsqaUBKTNV-1" source="_Sr880Kr4UFfRhCkgnSI-58" target="_Sr880Kr4UFfRhCkgnSI-60" edge="1">
                    <mxGeometry relative="1" as="geometry"/>
                </mxCell>
                <mxCell id="_Sr880Kr4UFfRhCkgnSI-73" value="" style="edgeStyle=orthogonalEdgeStyle;rounded=0;orthogonalLoop=1;jettySize=auto;html=1;" parent="WIyWlLk6GJQsqaUBKTNV-1" source="_Sr880Kr4UFfRhCkgnSI-58" target="_Sr880Kr4UFfRhCkgnSI-72" edge="1">
                    <mxGeometry relative="1" as="geometry"/>
                </mxCell>
                <mxCell id="_Sr880Kr4UFfRhCkgnSI-58" value="&lt;span style=&quot;&quot;&gt;exercise_frequency = rarely&lt;/span&gt;" style="rhombus;whiteSpace=wrap;html=1;fillColor=#f0a30a;fontColor=#000000;strokeColor=#BD7000;" parent="WIyWlLk6GJQsqaUBKTNV-1" vertex="1">
                    <mxGeometry x="990" y="2240" width="240" height="150" as="geometry"/>
                </mxCell>
                <mxCell id="_Sr880Kr4UFfRhCkgnSI-63" value="" style="edgeStyle=orthogonalEdgeStyle;rounded=0;orthogonalLoop=1;jettySize=auto;html=1;" parent="WIyWlLk6GJQsqaUBKTNV-1" source="_Sr880Kr4UFfRhCkgnSI-60" target="_Sr880Kr4UFfRhCkgnSI-62" edge="1">
                    <mxGeometry relative="1" as="geometry"/>
                </mxCell>
                <mxCell id="_Sr880Kr4UFfRhCkgnSI-75" value="" style="edgeStyle=orthogonalEdgeStyle;rounded=0;orthogonalLoop=1;jettySize=auto;html=1;" parent="WIyWlLk6GJQsqaUBKTNV-1" source="_Sr880Kr4UFfRhCkgnSI-60" target="_Sr880Kr4UFfRhCkgnSI-74" edge="1">
                    <mxGeometry relative="1" as="geometry"/>
                </mxCell>
                <mxCell id="_Sr880Kr4UFfRhCkgnSI-60" value="&lt;span style=&quot;&quot;&gt;exercise_frequency = enough&lt;/span&gt;" style="rhombus;whiteSpace=wrap;html=1;fillColor=#f0a30a;fontColor=#000000;strokeColor=#BD7000;" parent="WIyWlLk6GJQsqaUBKTNV-1" vertex="1">
                    <mxGeometry x="990" y="2470" width="240" height="150" as="geometry"/>
                </mxCell>
                <mxCell id="_Sr880Kr4UFfRhCkgnSI-65" value="" style="edgeStyle=orthogonalEdgeStyle;rounded=0;orthogonalLoop=1;jettySize=auto;html=1;" parent="WIyWlLk6GJQsqaUBKTNV-1" source="_Sr880Kr4UFfRhCkgnSI-62" target="_Sr880Kr4UFfRhCkgnSI-64" edge="1">
                    <mxGeometry relative="1" as="geometry"/>
                </mxCell>
                <mxCell id="_Sr880Kr4UFfRhCkgnSI-77" value="" style="edgeStyle=orthogonalEdgeStyle;rounded=0;orthogonalLoop=1;jettySize=auto;html=1;" parent="WIyWlLk6GJQsqaUBKTNV-1" source="_Sr880Kr4UFfRhCkgnSI-62" target="_Sr880Kr4UFfRhCkgnSI-76" edge="1">
                    <mxGeometry relative="1" as="geometry"/>
                </mxCell>
                <mxCell id="_Sr880Kr4UFfRhCkgnSI-62" value="&lt;span style=&quot;&quot;&gt;exercise_frequency = often&lt;/span&gt;" style="rhombus;whiteSpace=wrap;html=1;fillColor=#f0a30a;fontColor=#000000;strokeColor=#BD7000;" parent="WIyWlLk6GJQsqaUBKTNV-1" vertex="1">
                    <mxGeometry x="990" y="2700" width="240" height="150" as="geometry"/>
                </mxCell>
                <mxCell id="_Sr880Kr4UFfRhCkgnSI-79" value="" style="edgeStyle=orthogonalEdgeStyle;rounded=0;orthogonalLoop=1;jettySize=auto;html=1;" parent="WIyWlLk6GJQsqaUBKTNV-1" source="_Sr880Kr4UFfRhCkgnSI-64" target="_Sr880Kr4UFfRhCkgnSI-78" edge="1">
                    <mxGeometry relative="1" as="geometry"/>
                </mxCell>
                <mxCell id="_Sr880Kr4UFfRhCkgnSI-108" value="" style="edgeStyle=orthogonalEdgeStyle;rounded=0;orthogonalLoop=1;jettySize=auto;html=1;" parent="WIyWlLk6GJQsqaUBKTNV-1" source="_Sr880Kr4UFfRhCkgnSI-64" target="_Sr880Kr4UFfRhCkgnSI-107" edge="1">
                    <mxGeometry relative="1" as="geometry"/>
                </mxCell>
                <mxCell id="_Sr880Kr4UFfRhCkgnSI-64" value="&lt;span&gt;exercise_frequency = very_often&lt;/span&gt;" style="rhombus;whiteSpace=wrap;html=1;fillColor=#f0a30a;fontColor=#000000;strokeColor=#BD7000;" parent="WIyWlLk6GJQsqaUBKTNV-1" vertex="1">
                    <mxGeometry x="990" y="2930" width="240" height="150" as="geometry"/>
                </mxCell>
                <mxCell id="_Sr880Kr4UFfRhCkgnSI-66" value="final_calory = calory * 1.2" style="whiteSpace=wrap;html=1;fillColor=#1ba1e2;fontColor=#ffffff;strokeColor=#006EAF;" parent="WIyWlLk6GJQsqaUBKTNV-1" vertex="1">
                    <mxGeometry x="650" y="2057.5" width="190" height="55" as="geometry"/>
                </mxCell>
                <mxCell id="_Sr880Kr4UFfRhCkgnSI-68" value="Yes" style="text;html=1;align=center;verticalAlign=middle;resizable=0;points=[];autosize=1;strokeColor=none;fillColor=none;" parent="WIyWlLk6GJQsqaUBKTNV-1" vertex="1">
                    <mxGeometry x="510" y="1650" width="40" height="20" as="geometry"/>
                </mxCell>
                <mxCell id="_Sr880Kr4UFfRhCkgnSI-69" value="No" style="text;html=1;align=center;verticalAlign=middle;resizable=0;points=[];autosize=1;strokeColor=none;fillColor=none;" parent="WIyWlLk6GJQsqaUBKTNV-1" vertex="1">
                    <mxGeometry x="435" y="1770" width="30" height="20" as="geometry"/>
                </mxCell>
                <mxCell id="_Sr880Kr4UFfRhCkgnSI-70" value="Yes" style="text;html=1;align=center;verticalAlign=middle;resizable=0;points=[];autosize=1;strokeColor=none;fillColor=none;" parent="WIyWlLk6GJQsqaUBKTNV-1" vertex="1">
                    <mxGeometry x="920" y="2050" width="40" height="20" as="geometry"/>
                </mxCell>
                <mxCell id="_Sr880Kr4UFfRhCkgnSI-71" value="No" style="text;html=1;align=center;verticalAlign=middle;resizable=0;points=[];autosize=1;strokeColor=none;fillColor=none;" parent="WIyWlLk6GJQsqaUBKTNV-1" vertex="1">
                    <mxGeometry x="1070" y="2190" width="30" height="20" as="geometry"/>
                </mxCell>
                <mxCell id="_Sr880Kr4UFfRhCkgnSI-72" value="final_calory = calory * 1.375" style="whiteSpace=wrap;html=1;fillColor=#1ba1e2;fontColor=#ffffff;strokeColor=#006EAF;" parent="WIyWlLk6GJQsqaUBKTNV-1" vertex="1">
                    <mxGeometry x="650" y="2285" width="200" height="60" as="geometry"/>
                </mxCell>
                <mxCell id="_Sr880Kr4UFfRhCkgnSI-74" value="final_calory = calory * 1.55" style="whiteSpace=wrap;html=1;fillColor=#1ba1e2;fontColor=#ffffff;strokeColor=#006EAF;" parent="WIyWlLk6GJQsqaUBKTNV-1" vertex="1">
                    <mxGeometry x="650" y="2515" width="200" height="60" as="geometry"/>
                </mxCell>
                <mxCell id="_Sr880Kr4UFfRhCkgnSI-76" value="final_calory = calory * 1.725" style="whiteSpace=wrap;html=1;fillColor=#1ba1e2;fontColor=#ffffff;strokeColor=#006EAF;" parent="WIyWlLk6GJQsqaUBKTNV-1" vertex="1">
                    <mxGeometry x="650" y="2745" width="200" height="60" as="geometry"/>
                </mxCell>
                <mxCell id="_Sr880Kr4UFfRhCkgnSI-78" value="final_calory = calory * 1.9" style="whiteSpace=wrap;html=1;fillColor=#1ba1e2;fontColor=#ffffff;strokeColor=#006EAF;" parent="WIyWlLk6GJQsqaUBKTNV-1" vertex="1">
                    <mxGeometry x="650" y="2975" width="200" height="60" as="geometry"/>
                </mxCell>
                <mxCell id="_Sr880Kr4UFfRhCkgnSI-80" value="Yes" style="text;html=1;align=center;verticalAlign=middle;resizable=0;points=[];autosize=1;strokeColor=none;fillColor=none;" parent="WIyWlLk6GJQsqaUBKTNV-1" vertex="1">
                    <mxGeometry x="920" y="2280" width="40" height="20" as="geometry"/>
                </mxCell>
                <mxCell id="_Sr880Kr4UFfRhCkgnSI-82" value="No" style="text;html=1;align=center;verticalAlign=middle;resizable=0;points=[];autosize=1;strokeColor=none;fillColor=none;" parent="WIyWlLk6GJQsqaUBKTNV-1" vertex="1">
                    <mxGeometry x="1070" y="2420" width="30" height="20" as="geometry"/>
                </mxCell>
                <mxCell id="_Sr880Kr4UFfRhCkgnSI-83" value="Yes" style="text;html=1;align=center;verticalAlign=middle;resizable=0;points=[];autosize=1;strokeColor=none;fillColor=none;" parent="WIyWlLk6GJQsqaUBKTNV-1" vertex="1">
                    <mxGeometry x="920" y="2510" width="40" height="20" as="geometry"/>
                </mxCell>
                <mxCell id="_Sr880Kr4UFfRhCkgnSI-84" value="Yes" style="text;html=1;align=center;verticalAlign=middle;resizable=0;points=[];autosize=1;strokeColor=none;fillColor=none;" parent="WIyWlLk6GJQsqaUBKTNV-1" vertex="1">
                    <mxGeometry x="920" y="2740" width="40" height="20" as="geometry"/>
                </mxCell>
                <mxCell id="_Sr880Kr4UFfRhCkgnSI-85" value="Yes" style="text;html=1;align=center;verticalAlign=middle;resizable=0;points=[];autosize=1;strokeColor=none;fillColor=none;" parent="WIyWlLk6GJQsqaUBKTNV-1" vertex="1">
                    <mxGeometry x="920" y="2970" width="40" height="20" as="geometry"/>
                </mxCell>
                <mxCell id="_Sr880Kr4UFfRhCkgnSI-86" value="No" style="text;html=1;align=center;verticalAlign=middle;resizable=0;points=[];autosize=1;strokeColor=none;fillColor=none;" parent="WIyWlLk6GJQsqaUBKTNV-1" vertex="1">
                    <mxGeometry x="1070" y="2880" width="30" height="20" as="geometry"/>
                </mxCell>
                <mxCell id="_Sr880Kr4UFfRhCkgnSI-87" value="No" style="text;html=1;align=center;verticalAlign=middle;resizable=0;points=[];autosize=1;strokeColor=none;fillColor=none;" parent="WIyWlLk6GJQsqaUBKTNV-1" vertex="1">
                    <mxGeometry x="1070" y="2650" width="30" height="20" as="geometry"/>
                </mxCell>
                <mxCell id="_Sr880Kr4UFfRhCkgnSI-88" value="" style="endArrow=none;html=1;rounded=0;" parent="WIyWlLk6GJQsqaUBKTNV-1" edge="1">
                    <mxGeometry width="50" height="50" relative="1" as="geometry">
                        <mxPoint x="600" y="2084.57" as="sourcePoint"/>
                        <mxPoint x="650" y="2084.57" as="targetPoint"/>
                    </mxGeometry>
                </mxCell>
                <mxCell id="_Sr880Kr4UFfRhCkgnSI-90" value="" style="endArrow=none;html=1;rounded=0;" parent="WIyWlLk6GJQsqaUBKTNV-1" edge="1">
                    <mxGeometry width="50" height="50" relative="1" as="geometry">
                        <mxPoint x="600" y="2314.57" as="sourcePoint"/>
                        <mxPoint x="650" y="2314.57" as="targetPoint"/>
                    </mxGeometry>
                </mxCell>
                <mxCell id="_Sr880Kr4UFfRhCkgnSI-91" value="" style="endArrow=none;html=1;rounded=0;" parent="WIyWlLk6GJQsqaUBKTNV-1" edge="1">
                    <mxGeometry width="50" height="50" relative="1" as="geometry">
                        <mxPoint x="600" y="2544.57" as="sourcePoint"/>
                        <mxPoint x="650" y="2544.57" as="targetPoint"/>
                    </mxGeometry>
                </mxCell>
                <mxCell id="_Sr880Kr4UFfRhCkgnSI-92" value="" style="endArrow=none;html=1;rounded=0;" parent="WIyWlLk6GJQsqaUBKTNV-1" edge="1">
                    <mxGeometry width="50" height="50" relative="1" as="geometry">
                        <mxPoint x="600" y="2774.57" as="sourcePoint"/>
                        <mxPoint x="650" y="2774.57" as="targetPoint"/>
                    </mxGeometry>
                </mxCell>
                <mxCell id="_Sr880Kr4UFfRhCkgnSI-93" value="" style="endArrow=none;html=1;rounded=0;" parent="WIyWlLk6GJQsqaUBKTNV-1" edge="1">
                    <mxGeometry width="50" height="50" relative="1" as="geometry">
                        <mxPoint x="600" y="3004.57" as="sourcePoint"/>
                        <mxPoint x="650" y="3004.57" as="targetPoint"/>
                    </mxGeometry>
                </mxCell>
                <mxCell id="_Sr880Kr4UFfRhCkgnSI-94" value="" style="endArrow=classic;html=1;rounded=0;" parent="WIyWlLk6GJQsqaUBKTNV-1" edge="1">
                    <mxGeometry width="50" height="50" relative="1" as="geometry">
                        <mxPoint x="600" y="2085" as="sourcePoint"/>
                        <mxPoint x="600" y="3120" as="targetPoint"/>
                    </mxGeometry>
                </mxCell>
                <mxCell id="_Sr880Kr4UFfRhCkgnSI-106" value="" style="edgeStyle=orthogonalEdgeStyle;rounded=0;orthogonalLoop=1;jettySize=auto;html=1;" parent="WIyWlLk6GJQsqaUBKTNV-1" source="_Sr880Kr4UFfRhCkgnSI-103" target="_Sr880Kr4UFfRhCkgnSI-105" edge="1">
                    <mxGeometry relative="1" as="geometry"/>
                </mxCell>
                <mxCell id="_Sr880Kr4UFfRhCkgnSI-103" value="print final calory&lt;br&gt;print protein = (final_calory * (15/100)) / 4&lt;br&gt;print carbohydrate = (final_calory * (65/100)) / 4&lt;br&gt;print fat = (final_calory * (20/100)) / 4" style="whiteSpace=wrap;html=1;fillColor=#1ba1e2;fontColor=#ffffff;strokeColor=#006EAF;" parent="WIyWlLk6GJQsqaUBKTNV-1" vertex="1">
                    <mxGeometry x="414" y="3120" width="375" height="80" as="geometry"/>
                </mxCell>
                <mxCell id="_Sr880Kr4UFfRhCkgnSI-105" value="END" style="ellipse;whiteSpace=wrap;html=1;fillColor=#a20025;fontColor=#ffffff;strokeColor=#6F0000;" parent="WIyWlLk6GJQsqaUBKTNV-1" vertex="1">
                    <mxGeometry x="541.5" y="3310" width="120" height="60" as="geometry"/>
                </mxCell>
                <mxCell id="_Sr880Kr4UFfRhCkgnSI-114" value="" style="edgeStyle=orthogonalEdgeStyle;rounded=0;orthogonalLoop=1;jettySize=auto;html=1;" parent="WIyWlLk6GJQsqaUBKTNV-1" source="_Sr880Kr4UFfRhCkgnSI-107" target="_Sr880Kr4UFfRhCkgnSI-113" edge="1">
                    <mxGeometry relative="1" as="geometry"/>
                </mxCell>
                <mxCell id="_Sr880Kr4UFfRhCkgnSI-107" value="&lt;span style=&quot;&quot;&gt;Else&lt;/span&gt;" style="rhombus;whiteSpace=wrap;html=1;fillColor=#f0a30a;fontColor=#000000;strokeColor=#BD7000;" parent="WIyWlLk6GJQsqaUBKTNV-1" vertex="1">
                    <mxGeometry x="1045" y="3160" width="130" height="90" as="geometry"/>
                </mxCell>
                <mxCell id="_Sr880Kr4UFfRhCkgnSI-110" style="edgeStyle=orthogonalEdgeStyle;rounded=0;orthogonalLoop=1;jettySize=auto;html=1;exitX=0.5;exitY=1;exitDx=0;exitDy=0;" parent="WIyWlLk6GJQsqaUBKTNV-1" source="_Sr880Kr4UFfRhCkgnSI-38" target="_Sr880Kr4UFfRhCkgnSI-38" edge="1">
                    <mxGeometry relative="1" as="geometry"/>
                </mxCell>
                <mxCell id="_Sr880Kr4UFfRhCkgnSI-115" style="edgeStyle=orthogonalEdgeStyle;rounded=0;orthogonalLoop=1;jettySize=auto;html=1;entryX=1;entryY=0.5;entryDx=0;entryDy=0;" parent="WIyWlLk6GJQsqaUBKTNV-1" source="_Sr880Kr4UFfRhCkgnSI-113" target="_Sr880Kr4UFfRhCkgnSI-105" edge="1">
                    <mxGeometry relative="1" as="geometry"/>
                </mxCell>
                <mxCell id="_Sr880Kr4UFfRhCkgnSI-113" value="print &quot;mohon pilih seberapa sering anda berolahraga&quot;" style="whiteSpace=wrap;html=1;fillColor=#1ba1e2;fontColor=#ffffff;strokeColor=#006EAF;" parent="WIyWlLk6GJQsqaUBKTNV-1" vertex="1">
                    <mxGeometry x="1025" y="3310" width="170" height="60" as="geometry"/>
                </mxCell>
                <mxCell id="_Sr880Kr4UFfRhCkgnSI-119" value="" style="edgeStyle=orthogonalEdgeStyle;rounded=0;orthogonalLoop=1;jettySize=auto;html=1;" parent="WIyWlLk6GJQsqaUBKTNV-1" source="_Sr880Kr4UFfRhCkgnSI-116" target="_Sr880Kr4UFfRhCkgnSI-118" edge="1">
                    <mxGeometry relative="1" as="geometry"/>
                </mxCell>
                <mxCell id="_Sr880Kr4UFfRhCkgnSI-116" value="Else" style="rhombus;whiteSpace=wrap;html=1;fillColor=#f0a30a;fontColor=#000000;strokeColor=#BD7000;" parent="WIyWlLk6GJQsqaUBKTNV-1" vertex="1">
                    <mxGeometry x="371.25" y="2015" width="117.5" height="110" as="geometry"/>
                </mxCell>
                <mxCell id="_Sr880Kr4UFfRhCkgnSI-120" style="edgeStyle=orthogonalEdgeStyle;rounded=0;orthogonalLoop=1;jettySize=auto;html=1;entryX=-0.005;entryY=0.595;entryDx=0;entryDy=0;entryPerimeter=0;" parent="WIyWlLk6GJQsqaUBKTNV-1" source="_Sr880Kr4UFfRhCkgnSI-118" target="_Sr880Kr4UFfRhCkgnSI-105" edge="1">
                    <mxGeometry relative="1" as="geometry">
                        <Array as="points">
                            <mxPoint x="340" y="2260"/>
                            <mxPoint x="340" y="3346"/>
                        </Array>
                    </mxGeometry>
                </mxCell>
                <mxCell id="_Sr880Kr4UFfRhCkgnSI-118" value="Print &quot;Mohon pilih gender anda&quot;" style="whiteSpace=wrap;html=1;fillColor=#1ba1e2;fontColor=#ffffff;strokeColor=#006EAF;" parent="WIyWlLk6GJQsqaUBKTNV-1" vertex="1">
                    <mxGeometry x="370" y="2230" width="120" height="60" as="geometry"/>
                </mxCell>
            </root>
        </mxGraphModel>
    </diagram>
</mxfile>